<svg width="48" height="48" xmlns="http://www.w3.org/2000/svg">
 <!-- Created with Method Draw - http://github.com/duopixel/Method-Draw/ -->

 <g>
  <title>background</title>
  <rect fill="#fff" id="canvas_background" height="50" width="50" y="-1" x="-1"/>
  <g display="none" overflow="visible" y="0" x="0" height="100%" width="100%" id="canvasGrid">
   <rect fill="url(#gridpattern)" stroke-width="0" y="0" x="0" height="100%" width="100%"/>
  </g>
 </g>
 <g>
  <title>Layer 1</title>
  <!-- Created with Method Draw - http://github.com/duopixel/Method-Draw/ -->
  <g stroke="null" id="svg_19">
   <g stroke="null" transform="matrix(0.10223553026514715,0,0,0.10223553026514715,1.3774181646338847e-7,1.2396763315690841e-7) " id="svg_16">
    <title stroke="null" transform="translate(9.78133487701416,0) translate(-9.78133487701416,-19.56266975402832) translate(0,58.688011169433594) translate(0,-88.46617126464844) translate(-88.46617126464844,0) translate(0,-1.2085644006729126) translate(25.27604866027832,25.27604866027832) translate(-2.1223833560943604,0) translate(-3361.714599609375,-2262.206298828125) translate(3428.027099609375,0) translate(0,2327.60498046875) ">background</title>
    <rect stroke="null" x="-0.000006" y="39.125336" width="476" height="402" id="svg_14" fill="#fff"/>
    <g stroke="null" id="svg_13" display="none">
     <rect stroke="null" id="svg_17" width="580" height="400" x="0.999994" y="40.125336" stroke-width="0" fill="url(#gridpattern)"/>
    </g>
   </g>
   <g stroke="null" transform="matrix(0.10223553026514715,0,0,0.10223553026514715,1.3774181646338847e-7,1.2396763315690841e-7) " id="svg_18">
    <title stroke="null" transform="translate(9.78133487701416,0) translate(-9.78133487701416,-19.56266975402832) translate(0,58.688011169433594) translate(0,-88.46617126464844) translate(-88.46617126464844,0) translate(0,-1.2085644006729126) translate(25.27604866027832,25.27604866027832) translate(-2.1223833560943604,0) translate(-3361.714599609375,-2262.206298828125) translate(3428.027099609375,0) translate(0,2327.60498046875) ">Layer 1</title>
    <g stroke="null" id="svg_9">
     <g stroke="null" id="svg_10" transform="matrix(1.0875208822614193,0,0,1.0875208822614193,-2095.9455342770007,-2588.6628274562045) ">
      <path stroke="null" d="m2309.855387,2487.269611c-22.887,-4.196 -53.163,2.269 -65.561,26.389c-0.468,0.911 -0.895,1.863 -1.292,2.841l0,-39.896l15.15501,0c4.971,0 9,-4.029 9,-9l0,-35.952c0,-4.971 -4.029,-9 -9,-9l-229.443,0c-4.971,0 -9,4.029 -9,9l0,35.951c0,4.971 4.029,9 9,9l15.15499,0l0,33.523c-13.431,-21.205 -41.79899,-26.839 -63.52099,-22.856c-26.50701,4.865 -44.446,23.286 -45.702,46.931c-1.86,35.032 14.111,52.606 29.227,66.329c18.117,16.446 37.835,20.582 56.905,24.582c9.412,1.976 19.128,4.031 28.719,7.58c7.30699,16.035 21.158,28.479 38.132,33.88l0,25.175c0,4.971 4.029,9 9,9l15.916,0l0,20.332c0,4.971 4.029,9 9,9s9,-4.029 9,-9l0,-20.332l25.782,0l0,60.871l-25.782,0l0,-12.872c0,-4.971 -4.029,-9 -9,-9s-9,4.029 -9,9l0,12.872l-23.211,0c-4.971,0 -9,4.029 -9,9s4.029,9 9,9l32.211,0l43.782,0l32.211,0c4.971,0 9,-4.029 9,-9s-4.029,-9 -9,-9l-23.211,0l0,-60.871l15.917,0c4.971,0 9,-4.029 9,-9l0,-25.176c16.592,-5.279 30.212,-17.281 37.641,-32.796c0.806,-0.075 1.615,-0.261 2.407,-0.566c10.048,-3.883 20.259,-6.024 30.135,-8.097c19.069,-4 38.788,-8.136 56.903,-24.582c15.117,-13.723 31.089,-31.297 29.227,-66.328c-1.256,-23.646 -19.194,-42.068 -45.702,-46.932l-0.00001,0zm-272.141,-46.618l211.444,0l0,17.951l-15.155,0l-181.134,0l-15.155,0l0,-17.951zm-13.241,166.844c-18.246,-3.827 -34.004,-7.133 -48.501,-20.294c-16.157,-14.668 -24.664,-27.307 -23.351,-52.046c0.97,-18.26 17.293,-27.671 30.97601,-30.182c16.553,-3.036 38.103,0.961 46.30299,16.912c4.11201,8.001 3.471,22.903 -1.346,31.267c-3.92699,6.818 -10.247,11.314 -17.33999,12.335c-6.15901,0.889 -12.033,-0.998 -16.548,-5.309c-5.11401,-4.881 -8.14101,-10.902 -8.097,-16.107c0.03099,-3.696 1.614,-6.977 4.834,-10.019c0.657,-0.255 2.346,-0.339 3.594,0.395c0.397,0.233 1.328,0.78 1.406,3.2c0.16,4.968 4.313,8.858 9.286,8.705c4.968,-0.16 8.865,-4.317 8.705,-9.285c-0.288,-8.913 -5.096,-16.178 -12.863,-19.432c-7.643,-3.201 -16.745,-1.968 -22.135,3.003c-7.008,6.466 -10.752,14.516 -10.826,23.279c-0.087,10.235 4.89499,20.908 13.66799,29.281c8.472,8.088 19.97,11.771 31.542,10.104c12.429,-1.79 23.362,-9.331 30.091,-20.708l0,44.174c0,1.786 0.093,3.551 0.24,5.299c-6.695,-1.849 -13.234,-3.228 -19.638,-4.572zm156.771,62.019l0,13.232l-15.91699,0l-43.78201,0l-15.916,0l0,-13.232l0.983,0l73.647,0l0.985,0zm43.758,-62.744c0,24.672 -20.071,44.744 -44.743,44.744l-73.647,0c-24.67099,0 -44.743,-20.072 -44.743,-44.744l0,-130.168l163.133,0l0,130.168zm89.229,-19.568c-14.496,13.16 -30.254,16.466 -48.5,20.293c-7.486,1.57 -15.157,3.194 -23.044,5.563c0.207,-2.068 0.315,-4.166 0.315,-6.288l0,-51.276c0.862,2.345 1.866,4.586 3.051,6.643c6.703,11.638 17.772,19.353 30.371,21.167c11.567,1.669 23.069,-2.016 31.542,-10.104c8.773,-8.373 13.755,-19.046 13.668,-29.281c-0.074,-8.764 -3.817,-16.813 -10.827,-23.28c-5.39,-4.969 -14.489,-6.205 -22.134,-3.002c-7.767,3.255 -12.575,10.519 -12.862,19.432c-0.16,4.968 3.737,9.125 8.705,9.285c4.99,0.18 9.125,-3.737 9.285,-8.705c0.078,-2.42 1.009,-2.967 1.406,-3.2c1.249,-0.733 2.938,-0.65 3.594,-0.394c3.221,3.042 4.803,6.321 4.834,10.017c0.044,5.205 -2.983,11.228 -8.098,16.109c-4.515,4.31 -10.389,6.196 -16.548,5.308c-7.092,-1.021 -13.412,-5.517 -17.339,-12.335c-4.816,-8.362 -5.459,-23.266 -1.347,-31.267c8.199,-15.953 29.75,-19.948 46.303,-16.912c13.683,2.511 30.006,11.922 30.975,30.182c1.315,24.739 -7.192,37.376 -23.35,52.045z" id="svg_12"/>
      <path stroke="null" d="m2093.958387,2568.928611l98.957,0c4.971,0 9,-4.029 9,-9l0,-53.65c0,-4.971 -4.029,-9 -9,-9l-98.957,0c-4.971,0 -9,4.029 -9,9l0,53.65c0,4.971 4.029,9 9,9zm9,-53.65l80.957,0l0,35.65l-80.957,0l0,-35.65z" id="svg_11"/>
     </g>
    </g>
   </g>
  </g>
 </g>
</svg>